HIERARCHY
ROOT reference
{
  OFFSET 0 0 0
  CHANNELS 6 Xposition Yposition Zposition Zrotation Xrotation Yrotation
  JOINT Hips
  {
    OFFSET 33.3901 95.0035 228.991
    CHANNELS 6 Xposition Yposition Zposition Zrotation Xrotation Yrotation
    JOINT Spine
    {
      OFFSET 0 7.81434 0
      CHANNELS 6 Xposition Yposition Zposition Zrotation Xrotation Yrotation
      JOINT Spine1
      {
        OFFSET 0 23.3781 0
        CHANNELS 6 Xposition Yposition Zposition Zrotation Xrotation Yrotation
        JOINT Neck
        {
          OFFSET 0 23.2821 2.11656
          CHANNELS 6 Xposition Yposition Zposition Zrotation Xrotation Yrotation
          JOINT Head
          {
            OFFSET 0 13.3416 -1.90594
            CHANNELS 6 Xposition Yposition Zposition Zrotation Xrotation Yrotation
            End Site
            {
              OFFSET 0 23.8242 0
            }
          }
        }
        JOINT LeftShoulder
        {
          OFFSET 3.82472 21.4916 -0.175476
          CHANNELS 6 Xposition Yposition Zposition Zrotation Xrotation Yrotation
          JOINT LeftArm
          {
            OFFSET 10.8239 0 0
            CHANNELS 6 Xposition Yposition Zposition Zrotation Xrotation Yrotation
            JOINT LeftForeArm
            {
              OFFSET 28.5356 0 0
              CHANNELS 6 Xposition Yposition Zposition Zrotation Xrotation Yrotation
              JOINT LeftHand
              {
                OFFSET 24.5315 0 0
                CHANNELS 6 Xposition Yposition Zposition Zrotation Xrotation Yrotation
                End Site
                {
                  OFFSET 14.2945 0 0
                }
              }
            }
          }
        }
        JOINT RightShoulder
        {
          OFFSET -3.77033 21.4916 -0.175476
          CHANNELS 6 Xposition Yposition Zposition Zrotation Xrotation Yrotation
          JOINT RightArm
          {
            OFFSET -10.8239 0 0
            CHANNELS 6 Xposition Yposition Zposition Zrotation Xrotation Yrotation
            JOINT RightForeArm
            {
              OFFSET -28.5356 0 0
              CHANNELS 6 Xposition Yposition Zposition Zrotation Xrotation Yrotation
              JOINT RightHand
              {
                OFFSET -24.5315 0 0
                CHANNELS 6 Xposition Yposition Zposition Zrotation Xrotation Yrotation
                End Site
                {
                  OFFSET -14.2945 0 0
                }
              }
            }
          }
        }
      }
    }
    JOINT LeftUpLeg
    {
      OFFSET 9.52968 0 0
      CHANNELS 6 Xposition Yposition Zposition Zrotation Xrotation Yrotation
      JOINT LeftLeg
      {
        OFFSET 0 -40.1884 0
        CHANNELS 6 Xposition Yposition Zposition Zrotation Xrotation Yrotation
        JOINT LeftFoot
        {
          OFFSET 0 -39.9954 0
          CHANNELS 6 Xposition Yposition Zposition Zrotation Xrotation Yrotation
          JOINT LeftToeBase
          {
            OFFSET 0 -6.19429 14.2945
            CHANNELS 6 Xposition Yposition Zposition Zrotation Xrotation Yrotation
            End Site
            {
              OFFSET 0 0 3.81187
            }
          }
        }
      }
    }
    JOINT RightUpLeg
    {
      OFFSET -9.52968 0 0
      CHANNELS 6 Xposition Yposition Zposition Zrotation Xrotation Yrotation
      JOINT RightLeg
      {
        OFFSET 0 -40.1884 0
        CHANNELS 6 Xposition Yposition Zposition Zrotation Xrotation Yrotation
        JOINT RightFoot
        {
          OFFSET 0 -39.9954 0
          CHANNELS 6 Xposition Yposition Zposition Zrotation Xrotation Yrotation
          JOINT RightToeBase
          {
            OFFSET 0 -6.19429 14.2945
            CHANNELS 6 Xposition Yposition Zposition Zrotation Xrotation Yrotation
            End Site
            {
              OFFSET 0 0 3.81187
            }
          }
        }
      }
    }
  }
}
MOTION
Frames:	4
Frame Time:	0.004
0 0 0 0 0 -0 12.8333 76.5532 -10.6404 5.4612 -8.16316 0.749652 0 7.81434 0 -8.45732 6.48104 4.03048 0 23.3781 1.77636e-015 -6.71096 -3.06091 3.3711 -8.88178e-016 23.2821 2.11656 1.60813 14.6423 -1.2991 2.44249e-015 13.3416 -1.90594 3.06501 2.58908 -1.00708 3.82472 21.4916 -0.175476 -5.01693 14.8477 -6.473 10.8239 0 0 -18.6661 23.5306 -49.6031 28.5356 0 -7.10543e-015 -7.22002 -6.89932 -49.9041 24.5315 1.42109e-014 0 13.0176 -12.8053 -22.7582 -3.77033 21.4916 -0.175476 9.42627 27.1836 10.6678 -10.8239 0 1.42109e-014 26.38 31.0715 49.7937 -28.5356 -7.10543e-015 0 1.58797 -4.10724 58.8266 -24.5315 0 0 4.21589 -4.71687 7.6684 9.52968 1.42109e-014 -1.77636e-015 -9.13415 -25.3818 -0.175377 -3.55271e-015 -40.1884 0 1.99959 52.0607 -4.47858 -3.55271e-015 -39.9954 -5.32907e-015 11.9434 -30.007 9.47085 3.55271e-015 -6.19429 14.2945 -3.18055e-015 3.18055e-015 -3.97569e-016 -9.52968 0 0 -4.44587 -11.1079 -8.98352 8.88178e-016 -40.1884 3.55271e-015 -172.457 80.0568 168.97 0 -39.9954 7.10543e-015 9.78923 -13.675 -0.953347 -1.77636e-015 -6.19429 14.2945 -8.82781e-032 6.36111e-015 7.95139e-016 
0 0 0 0 0 -0 12.863 76.6744 -10.0038 5.38574 -8.37251 0.845701 -3.55271e-015 7.81434 3.55271e-015 -8.39968 6.63706 3.93591 0 23.3781 0 -6.6358 -3.06345 3.27017 8.88178e-016 23.2821 2.11656 1.64416 14.6917 -1.237 2.22045e-016 13.3416 -1.90594 3.11073 2.56918 -0.936202 3.82472 21.4916 -0.175476 -4.58656 14.3653 -6.91656 10.8239 -1.42109e-014 0 -18.1288 22.9395 -50.6768 28.5356 -1.42109e-014 3.55271e-015 -7.80283 -6.31902 -51.1673 24.5315 0 7.10543e-015 13.0932 -12.609 -22.6774 -3.77033 21.4916 -0.175476 8.97916 26.931 11.0289 -10.8239 -1.42109e-014 7.10543e-015 26.2973 30.4379 50.5337 -28.5356 7.10543e-015 1.77636e-015 1.35716 -3.53805 60.9963 -24.5315 -1.42109e-014 1.42109e-014 4.59093 -4.04852 7.14332 9.52968 0 1.77636e-015 -9.12957 -24.6035 -0.130783 3.55271e-015 -40.1884 -7.10543e-015 2.15409 51.9133 -4.66645 0 -39.9954 -8.88178e-016 12.1216 -30.3824 9.6382 0 -6.19429 14.2945 8.44835e-016 -4.77083e-015 3.97569e-016 -9.52968 0 0 -4.74796 -12.7323 -9.27047 0 -40.1884 0 -173.194 78.0792 169.758 -8.88178e-016 -39.9954 7.10543e-015 9.66533 -13.8395 -0.901234 -1.77636e-015 -6.19429 14.2945 6.36111e-015 0 -1.59028e-015 
0 0 0 0 0 -0 12.8892 76.7973 -9.41272 5.36765 -8.48799 0.983534 0 7.81434 1.77636e-015 -8.42709 6.79052 3.83429 0 23.3781 -8.88178e-016 -6.55672 -3.11812 3.15462 -1.77636e-015 23.2821 2.11656 1.76804 14.6392 -1.18828 -1.77636e-015 13.3416 -1.90594 3.01639 2.60824 -0.900609 3.82472 21.4916 -0.175476 -4.22821 13.8044 -7.26965 10.8239 1.42109e-014 3.55271e-015 -17.4358 22.4509 -51.8052 28.5356 0 1.77636e-015 -8.02917 -5.69685 -52.2744 24.5315 0 1.42109e-014 12.2303 -12.0262 -22.6555 -3.77033 21.4916 -0.175476 8.57256 26.4785 11.3692 -10.8239 1.42109e-014 -7.10543e-015 26.3045 29.996 51.1691 -28.5356 -1.42109e-014 1.77636e-015 1.13626 -2.98459 63.0257 -24.5315 -7.10543e-015 1.42109e-014 4.42049 -3.4196 6.71981 9.52968 0 0 -9.20054 -23.9702 -0.0122319 -7.10543e-015 -40.1884 0 2.50403 51.7567 -4.9851 3.55271e-015 -39.9954 -1.77636e-015 12.0906 -30.6041 9.60153 0 -6.19429 14.2945 -7.45443e-016 0 3.97569e-016 -9.52968 1.42109e-014 1.77636e-015 -5.11259 -14.545 -9.70633 8.88178e-016 -40.1884 0 -173.32 76.1257 169.417 1.77636e-015 -39.9954 0 9.697 -13.8389 -0.45615 -1.77636e-015 -6.19429 14.2945 -6.36111e-015 0 -7.95139e-016 
0 0 0 0 0 -0 12.9357 76.9345 -8.86586 5.27169 -8.48779 1.11484 0 7.81434 0 -8.29248 6.85059 3.69386 -3.55271e-015 23.3781 -1.77636e-015 -6.59002 -3.19575 3.01245 2.66454e-015 23.2821 2.11656 1.8857 14.6197 -1.15421 1.22125e-015 13.3416 -1.90594 3.0019 2.59077 -0.868574 3.82472 21.4916 -0.175476 -3.75432 13.1502 -7.83816 10.8239 0 0 -17.189 21.9202 -52.4984 28.5356 -1.42109e-014 1.77636e-015 -8.64258 -4.98517 -53.745 24.5315 -1.42109e-014 -7.10543e-015 12.498 -11.7671 -22.2613 -3.77033 21.4916 -0.175476 8.19873 26.0611 11.6872 -10.8239 1.42109e-014 -7.10543e-015 26.3339 29.5759 51.7459 -28.5356 -7.10543e-015 0 0.953628 -2.55607 65.0991 -24.5315 0 0 4.50902 -2.92735 5.96847 9.52968 0 -1.77636e-015 -9.23667 -23.4591 -0.0462231 0 -40.1884 7.10543e-015 2.8645 51.6981 -5.40335 0 -39.9954 0 12.0765 -30.9312 9.64754 3.55271e-015 -6.19429 14.2945 6.95746e-016 -1.59028e-015 1.98785e-016 -9.52968 0 0 -5.49822 -16.5126 -9.89702 -8.88178e-016 -40.1884 3.55271e-015 -174.575 74.2173 170.7 -1.77636e-015 -39.9954 -7.10543e-015 9.34429 -13.8296 -0.368498 0 -6.19429 14.2945 0 0 -7.95139e-016 
